<?xml version="1.0" encoding="utf-8"?><!DOCTYPE svg PUBLIC "-//W3C//DTD SVG 1.1//EN" "http://www.w3.org/Graphics/SVG/1.1/DTD/svg11.dtd"><svg xmlns="http://www.w3.org/2000/svg" xmlns:xlink="http://www.w3.org/1999/xlink"><symbol viewBox="0 0 20 20" fill="currentColor" id="at-sign" xmlns="http://www.w3.org/2000/svg"><path fill-rule="evenodd" d="M14.243 5.757a6 6 0 10-.986 9.284 1 1 0 111.087 1.678A8 8 0 1118 10a3 3 0 01-4.8 2.401A4 4 0 1114 10a1 1 0 102 0c0-1.537-.586-3.07-1.757-4.243zM12 10a2 2 0 10-4 0 2 2 0 004 0z" clip-rule="evenodd"/></symbol><symbol class="bh-6 bw-6" fill="none" viewBox="0 0 24 24" stroke="currentColor" id="bell" xmlns="http://www.w3.org/2000/svg"><path stroke-linecap="round" stroke-linejoin="round" stroke-width="2" d="M15 17h5l-1.405-1.405A2.032 2.032 0 0118 14.158V11a6.002 6.002 0 00-4-5.659V5a2 2 0 10-4 0v.341C7.67 6.165 6 8.388 6 11v3.159c0 .538-.214 1.055-.595 1.436L4 17h5m6 0v1a3 3 0 11-6 0v-1m6 0H9"/></symbol><symbol class="ch-5 cw-5" viewBox="0 0 20 20" fill="currentColor" id="cancel" xmlns="http://www.w3.org/2000/svg"><path fill-rule="evenodd" d="M4.293 4.293a1 1 0 011.414 0L10 8.586l4.293-4.293a1 1 0 111.414 1.414L11.414 10l4.293 4.293a1 1 0 01-1.414 1.414L10 11.414l-4.293 4.293a1 1 0 01-1.414-1.414L8.586 10 4.293 5.707a1 1 0 010-1.414z" clip-rule="evenodd"/></symbol><symbol fill="none" viewBox="0 0 24 24" stroke="currentColor" id="chevron-down" xmlns="http://www.w3.org/2000/svg"><path stroke-linecap="round" stroke-linejoin="round" stroke-width="2" d="M19 9l-7 7-7-7"/></symbol><symbol class="eh-5 ew-5" viewBox="0 0 20 20" fill="currentColor" id="eye" xmlns="http://www.w3.org/2000/svg"><path d="M10 12a2 2 0 100-4 2 2 0 000 4z"/><path fill-rule="evenodd" d="M.458 10C1.732 5.943 5.522 3 10 3s8.268 2.943 9.542 7c-1.274 4.057-5.064 7-9.542 7S1.732 14.057.458 10zM14 10a4 4 0 11-8 0 4 4 0 018 0z" clip-rule="evenodd"/></symbol><symbol class="fh-5 fw-5" viewBox="0 0 20 20" fill="currentColor" id="eye-off" xmlns="http://www.w3.org/2000/svg"><path fill-rule="evenodd" d="M3.707 2.293a1 1 0 00-1.414 1.414l14 14a1 1 0 001.414-1.414l-1.473-1.473A10.014 10.014 0 0019.542 10C18.268 5.943 14.478 3 10 3a9.958 9.958 0 00-4.512 1.074l-1.78-1.781zm4.261 4.26l1.514 1.515a2.003 2.003 0 012.45 2.45l1.514 1.514a4 4 0 00-5.478-5.478z" clip-rule="evenodd"/><path d="M12.454 16.697L9.75 13.992a4 4 0 01-3.742-3.741L2.335 6.578A9.98 9.98 0 00.458 10c1.274 4.057 5.065 7 9.542 7 .847 0 1.669-.105 2.454-.303z"/></symbol><symbol viewBox="73 0 267 266.9" id="facebook-logo" xmlns="http://www.w3.org/2000/svg"><path fill="#157DC3" d="M321.1 262.3c7.9 0 14.2-6.4 14.2-14.2V18.8c0-7.9-6.4-14.2-14.2-14.2H91.8C84 4.6 77.6 11 77.6 18.8v229.3c0 7.9 6.4 14.2 14.2 14.2h229.3z"/><path fill="#FFF" d="M255.4 262.3v-99.8h33.5l5-38.9h-38.5V98.8c0-11.3 3.1-18.9 19.3-18.9h20.6V45c-3.6-.5-15.8-1.5-30-1.5-29.7 0-50 18.1-50 51.4v28.7h-33.6v38.9h33.6v99.8h40.1z"/></symbol><symbol viewBox="0 0 24 24" id="google-logo" xmlns="http://www.w3.org/2000/svg"><path fill="#4285F4" d="M23.745 12.27c0-.79-.07-1.54-.19-2.27h-11.3v4.51h6.47c-.29 1.48-1.14 2.73-2.4 3.58v3h3.86c2.26-2.09 3.56-5.17 3.56-8.82z"/><path fill="#34A853" d="M12.255 24c3.24 0 5.95-1.08 7.93-2.91l-3.86-3c-1.08.72-2.45 1.16-4.07 1.16-3.13 0-5.78-2.11-6.73-4.96h-3.98v3.09C3.515 21.3 7.565 24 12.255 24z"/><path fill="#FBBC05" d="M5.525 14.29c-.25-.72-.38-1.49-.38-2.29s.14-1.57.38-2.29V6.62h-3.98a11.86 11.86 0 000 10.76l3.98-3.09z"/><path fill="#EA4335" d="M12.255 4.75c1.77 0 3.35.61 4.6 1.8l3.42-3.42C18.205 1.19 15.495 0 12.255 0c-4.69 0-8.74 2.7-10.71 6.62l3.98 3.09c.95-2.85 3.6-4.96 6.73-4.96z"/></symbol><symbol fill="none" viewBox="0 0 24 24" id="key"><path stroke="currentColor" stroke-linecap="round" stroke-linejoin="round" stroke-width="1.5" d="M15 13.25a4.25 4.25 0 10-4.154-3.346L4.75 16v3.25H8l.75-.75v-1.75h1.75l1.25-1.25v-1.75h1.75l.596-.596c.291.063.594.096.904.096z"/><path stroke="currentColor" d="M16.5 8a.5.5 0 11-1 0 .5.5 0 011 0z"/></symbol><symbol fill="none" viewBox="0 0 24 24" id="search"><path stroke="currentColor" stroke-linecap="round" stroke-linejoin="round" stroke-width="1.5" d="M19.25 19.25L15.5 15.5M4.75 11a6.25 6.25 0 1112.5 0 6.25 6.25 0 01-12.5 0z"/></symbol><symbol viewBox="0 0 20 20" fill="currentColor" id="user" xmlns="http://www.w3.org/2000/svg"><path fill-rule="evenodd" d="M10 9a3 3 0 100-6 3 3 0 000 6zm-7 9a7 7 0 1114 0H3z" clip-rule="evenodd"/></symbol></svg>